<svg preserveAspectRatio="none" width="100%" height="100%" overflow="visible" style="display: block;" viewBox="0 0 8 14" fill="none" xmlns="http://www.w3.org/2000/svg">
<path id="Vector" d="M7.67703 1.56154C8.10495 1.20657 8.10804 0.628464 7.68391 0.270311C7.25979 -0.0878418 6.56907 -0.090421 6.14115 0.26455L3.53063 2.43003C2.5474 3.24561 1.7438 3.91219 1.1739 4.50612C0.581276 5.12374 0.152284 5.75062 0.0376859 6.50311C-0.012562 6.83305 -0.0125619 7.16695 0.0376857 7.49689C0.152284 8.24938 0.581277 8.87626 1.1739 9.49388C1.7438 10.0878 2.54739 10.7544 3.53061 11.57L6.14115 13.7354C6.56907 14.0904 7.25979 14.0878 7.68391 13.7297C8.10804 13.3715 8.10495 12.7934 7.67703 12.4385L5.11271 10.3113C4.07199 9.44801 3.3581 8.85387 2.87505 8.35045C2.40581 7.86143 2.24484 7.54732 2.20199 7.26601C2.17509 7.08936 2.17509 6.91063 2.20199 6.73399C2.24484 6.45268 2.40581 6.13857 2.87504 5.64955C3.3581 5.14613 4.07199 4.55199 5.11271 3.68869L7.67703 1.56154Z" fill="var(--fill-0, white)"/>
</svg>
