<svg preserveAspectRatio="none" width="100%" height="100%" overflow="visible" style="display: block;" viewBox="0 0 30 32" fill="none" xmlns="http://www.w3.org/2000/svg">
<g id="Group">
<path id="Vector" d="M28.5653 7.43067C26.0173 4.88667 18.9493 9.128 13.4533 14.148C13.1813 14.396 13.1627 14.8187 13.4107 15.0907C13.66 15.364 14.0813 15.38 14.3533 15.1333C20.0813 9.90267 25.0093 7.58533 26.9987 8.05867L14.2987 20.7587C14.0387 21.0187 14.0387 21.4413 14.2987 21.7013C14.4293 21.8307 14.6 21.896 14.7707 21.896C14.9413 21.896 15.112 21.8307 15.2413 21.7013L27.94 9.00267C28.5133 11.2693 25.3893 17.2107 19.1387 23.46C16.92 25.6787 14.552 27.6667 12.292 29.2093C11.988 29.4173 11.9093 29.832 12.1173 30.136C12.2467 30.3253 12.456 30.4267 12.6693 30.4267C12.7987 30.4267 12.9293 30.3893 13.0427 30.3093C15.3707 28.72 17.804 26.6773 20.08 24.4013C26.252 18.232 31.3213 10.1867 28.5653 7.43067ZM6 0C2.10267 0 0 9.27467 0 18C0 23.24 0.717333 28.184 1.968 31.564C2.06533 31.8267 2.31467 32 2.59333 32H9.40667C9.54133 32 9.67067 31.9573 9.78 31.8827C9.856 31.8307 9.90267 31.748 9.952 31.668C9.97333 31.6347 10.0093 31.616 10.024 31.5773C10.024 31.576 10.024 31.5747 10.0253 31.5733C10.0267 31.5693 10.0307 31.568 10.032 31.564C11.2827 28.184 12 23.24 12 18C12 9.27467 9.89733 0 6 0ZM3.064 30.6667C1.96133 27.444 1.33333 22.8653 1.33333 18C1.33333 13.52 1.848 9.67067 2.61467 6.796C4.952 8.48 5.33333 11.5787 5.33333 13.3333C5.33333 14.4773 4.728 15.5613 4.08533 16.708C3.40267 17.9293 2.696 19.1933 2.66533 20.652C2.61067 23.232 2.576 24.9373 5.68667 26.588C6.59067 27.068 6.604 27.5773 6.62667 28.4213C6.644 29.0893 6.66933 29.908 7.26667 30.6667H3.064ZM9.016 30.4107C8.00933 29.8413 7.98133 29.2107 7.95867 28.3853C7.93467 27.4867 7.90267 26.2547 6.312 25.4107C3.92667 24.1453 3.94667 23.2027 4 20.6813C4.024 19.5547 4.62 18.4893 5.25067 17.36C5.948 16.1133 6.668 14.8253 6.668 13.3333C6.668 11.2253 6.19467 7.39733 3.02267 5.436C3.88667 2.84267 4.96933 1.33333 6 1.33333C8.20667 1.33333 10.6667 8.17867 10.6667 18C10.6667 22.7427 10.0667 27.2027 9.016 30.4107Z" fill="var(--fill-0, white)"/>
</g>
</svg>
